<svg xmlns="http://www.w3.org/2000/svg" version="1.1" xmlns:xlink="http://www.w3.org/1999/xlink" xmlns:svgjs="http://svgjs.dev/svgjs" width="800px" height="800px"><svg width="800px" height="800px" viewBox="0 0 32 32" enable-background="new 0 0 32 32" version="1.1" xml:space="preserve" xmlns="http://www.w3.org/2000/svg" xmlns:xlink="http://www.w3.org/1999/xlink">

<g id="SvgjsG1039"></g>

<g id="SvgjsG1038"></g>

<g id="SvgjsG1037"></g>

<g id="SvgjsG1036"></g>

<g id="SvgjsG1035"></g>

<g id="SvgjsG1034"></g>

<g id="SvgjsG1033"></g>

<g id="SvgjsG1032"></g>

<g id="SvgjsG1031">

<g>

<path d="M27,28c0,0.53-0.28,1.26-1.64,1.79C23.6,30.53,20,31,16,31s-7.6-0.47-9.39-1.22C5.28,29.26,5,28.53,5,28    c0-0.43,0.19-1,1-1.49v-9.02C5.19,17,5,16.43,5,16s0.19-1,1-1.49V4.86c0-0.33,0.17-0.65,0.45-0.83c0.27-0.19,0.63-0.22,0.94-0.09    C8.92,4.58,12.31,5,16,5s7.08-0.42,8.61-1.06c0.31-0.13,0.67-0.1,0.94,0.09C25.83,4.21,26,4.53,26,4.86v9.65    c0.81,0.49,1,1.06,1,1.49s-0.19,1-1,1.49v9.02C26.81,27,27,27.57,27,28z" fill="#6358AB" data-darkreader-inline-fill="" style="--darkreader-inline-fill: var(--darkreader-background-6358ab, #564c92);"></path>

</g>

<g>

<path d="M21,17H11c-0.5522,0-1-0.4473-1-1s0.4478-1,1-1h10c0.5522,0,1,0.4473,1,1S21.5522,17,21,17z" fill="#624F81" data-darkreader-inline-fill="" style="--darkreader-inline-fill: var(--darkreader-background-624f81, #584872);"></path>

</g>

<g>

<path d="M27,4c0,0.53-0.28,1.26-1.64,1.79C23.6,6.53,20,7,16,7S8.4,6.53,6.61,5.78C5.28,5.26,5,4.53,5,4    c0-0.53,0.28-1.26,1.64-1.79C8.4,1.47,12,1,16,1s7.6,0.47,9.39,1.22C26.72,2.74,27,3.47,27,4z" fill="#624F81" data-darkreader-inline-fill="" style="--darkreader-inline-fill: var(--darkreader-background-624f81, #584872);"></path>

</g>

</g>

<g id="SvgjsG1030"></g>

<g id="SvgjsG1029"></g>

<g id="SvgjsG1028"></g>

<g id="SvgjsG1027"></g>

<g id="SvgjsG1026"></g>

<g id="SvgjsG1025"></g>

<g id="SvgjsG1024"></g>

<g id="SvgjsG1023"></g>

<g id="SvgjsG1022"></g>

<g id="SvgjsG1021"></g>

<g id="SvgjsG1020"></g>

</svg><style>@media (prefers-color-scheme: light) { :root { filter: none; } }
@media (prefers-color-scheme: dark) { :root { filter: none; } }
</style></svg>